HIERARCHY
ROOT SpineBase
{
  OFFSET 0.000000 0.000000 0.000000
  CHANNELS 6 Xposition Yposition Zposition Zrotation Xrotation Yrotation
  JOINT SpineMid
  {
    OFFSET 0.000000 34.580534 0.000000
    CHANNELS 3 Zrotation Xrotation Yrotation
    JOINT SpineShoulder
    {
      OFFSET 0.085583 25.632035 -0.877200
      CHANNELS 3 Zrotation Xrotation Yrotation
      JOINT Neck
      {
        OFFSET 0.089864 8.458430 -0.656654
        CHANNELS 3 Zrotation Xrotation Yrotation
        JOINT Head
        {
          OFFSET -0.364624 11.061233 6.606146
          CHANNELS 3 Zrotation Xrotation Yrotation
          End Site
          {
            OFFSET 0 0 0
          }
        }
      }
      JOINT ShoulderLeft
      {
        OFFSET -13.065645 -6.899306 -7.354449
        CHANNELS 3 Zrotation Xrotation Yrotation
        JOINT ElbowLeft
        {
          OFFSET -6.999926 -23.801795 7.542082
          CHANNELS 3 Zrotation Xrotation Yrotation
          JOINT WristLeft
          {
            OFFSET -2.241805 -24.749371 8.060336
            CHANNELS 3 Zrotation Xrotation Yrotation
            JOINT HandLeft
            {
              OFFSET -1.465050 -13.041278 3.128992
              CHANNELS 3 Zrotation Xrotation Yrotation
              JOINT HandTipLeft
              {
                OFFSET 0.250275 -3.638612 -0.415738
                CHANNELS 3 Zrotation Xrotation Yrotation
                End Site
                {
                  OFFSET 0 0 0
                }
              }
              JOINT ThumbLeft
              {
                OFFSET 1.363887 0.053164 -3.082285
                CHANNELS 3 Zrotation Xrotation Yrotation
                End Site
                {
                  OFFSET 0 0 0
                }
              }
            }
          }
        }
      }
      JOINT ShoulderRight
      {
        OFFSET 14.081051 -6.799602 -8.646695
        CHANNELS 3 Zrotation Xrotation Yrotation
        JOINT ElbowRight
        {
          OFFSET 5.777829 -25.230577 5.048472
          CHANNELS 3 Zrotation Xrotation Yrotation
          JOINT WristRight
          {
            OFFSET 2.867546 -24.852102 7.715403
            CHANNELS 3 Zrotation Xrotation Yrotation
            JOINT HandRight
            {
              OFFSET -0.527288 -7.215411 2.597650
              CHANNELS 3 Zrotation Xrotation Yrotation
              JOINT HandTipRight
              {
                OFFSET -0.225259 -6.626586 -0.381754
                CHANNELS 3 Zrotation Xrotation Yrotation
                End Site
                {
                  OFFSET 0 0 0
                }
              }
              JOINT ThumbRight
              {
                OFFSET -3.235076 0.151458 -1.216071
                CHANNELS 3 Zrotation Xrotation Yrotation
                End Site
                {
                  OFFSET 0 0 0
                }
              }
            }
          }
        }
      }
    }
  }
  JOINT HipLeft
  {
    OFFSET -5.283832 0.897906 -3.385258
    CHANNELS 3 Zrotation Xrotation Yrotation
    JOINT KneeLeft
    {
      OFFSET -2.713975 -38.744859 -2.419440
      CHANNELS 3 Zrotation Xrotation Yrotation
      JOINT AnkleLeft
      {
        OFFSET -1.750965 -31.651576 -1.317205
        CHANNELS 3 Zrotation Xrotation Yrotation
        JOINT FootLeft
        {
          OFFSET 0.423627 -3.283237 -13.529365
          CHANNELS 3 Zrotation Xrotation Yrotation
          End Site
          {
            OFFSET 0 0 0
          }
        }
      }
    }
  }
  JOINT HipRight
  {
    OFFSET 7.044160 1.085562 -4.287792
    CHANNELS 3 Zrotation Xrotation Yrotation
    JOINT KneeRight
    {
      OFFSET 1.758183 -35.981955 -3.515590
      CHANNELS 3 Zrotation Xrotation Yrotation
      JOINT AnkleRight
      {
        OFFSET 1.742505 -34.047691 -2.671950
        CHANNELS 3 Zrotation Xrotation Yrotation
        JOINT FootRight
        {
          OFFSET 0.222283 -3.256072 -13.563358
          CHANNELS 3 Zrotation Xrotation Yrotation
          End Site
          {
            OFFSET 0 0 0
          }
        }
      }
    }
  }
}
MOTION
Frames: 9
Frame Time: 0.033333
-76.537074 73.376700 335.821082 -0.000000 0.000000 4.187161 -0.000000 0.000000 -4.187161 -0.000000 0.000000 0.000000 -0.000000 0.000000 0.000000 0.000000 0.000000 0.000000 -0.000000 0.000000 0.000000 -0.000000 0.000000 0.000000 -0.000000 0.000000 0.000000 -0.000000 0.000000 0.000000 0.000000 0.000000 0.000000 0.000000 0.000000 0.000000 -0.000000 0.000000 0.000000 -0.000000 0.000000 0.000000 -0.000000 0.000000 0.000000 -0.000000 0.000000 0.000000 0.000000 0.000000 0.000000 0.000000 0.000000 0.000000 -0.000000 0.000000 -4.187161 -0.000000 0.000000 0.000000 -0.000000 0.000000 0.000000 0.000000 0.000000 0.000000 -0.000000 0.000000 -4.187161 -0.000000 0.000000 0.000000 -0.000000 0.000000 0.000000 0.000000 0.000000 0.000000
-76.560386 73.370531 335.910136 -0.007647 0.051410 4.138557 0.003917 -0.051828 -4.138552 -0.000000 0.000000 0.000000 1.058926 -0.840195 -0.655039 0.000000 0.000000 0.000000 -0.000000 0.000000 0.000000 -0.000000 0.000000 0.000000 -0.000000 0.000000 0.000000 0.382542 2.311783 0.107334 0.000000 0.000000 0.000000 0.000000 0.000000 0.000000 -0.000000 0.000000 0.000000 -0.000000 0.000000 0.000000 -0.000000 0.000000 0.000000 -0.000000 0.000000 0.000000 0.000000 0.000000 0.000000 0.000000 0.000000 0.000000 0.003917 -0.051828 -4.138552 -0.000000 0.000000 0.000000 -0.000000 0.000000 0.000000 0.000000 0.000000 0.000000 0.003917 -0.051828 -4.138552 -0.000000 0.000000 0.000000 -0.000000 0.000000 0.000000 0.000000 0.000000 0.000000
-76.584095 73.364893 335.989982 -0.013698 0.114045 4.086538 0.005536 -0.114731 -4.086519 -0.000000 0.000000 0.000000 1.959585 -1.643575 -1.206125 0.000000 0.000000 0.000000 -0.000000 0.000000 0.000000 -0.000000 0.000000 0.000000 0.168399 -1.294379 0.187245 0.538591 5.226930 -0.032209 0.000000 0.000000 0.000000 0.000000 0.000000 0.000000 -0.000000 0.000000 0.000000 -0.000000 0.000000 0.000000 0.967223 0.905260 0.275378 -0.971683 -0.900472 -0.290655 0.000000 0.000000 0.000000 0.000000 0.000000 0.000000 0.005536 -0.114731 -4.086519 -0.000000 0.000000 0.000000 -0.000000 0.000000 0.000000 0.000000 0.000000 0.000000 0.005536 -0.114731 -4.086519 -0.000000 0.000000 0.000000 -0.000000 0.000000 0.000000 0.000000 0.000000 0.000000
-76.608200 73.359787 336.060621 -0.018150 0.187890 4.031028 0.004897 -0.188702 -4.030990 -0.556920 0.778560 -0.047746 3.260756 -3.176924 -1.562140 0.000000 0.000000 0.000000 -0.310652 -1.259096 -0.093606 0.077899 0.618105 -0.132009 1.075851 -1.852599 0.534348 0.673197 6.569011 -0.095292 0.000000 0.000000 0.000000 0.000000 0.000000 0.000000 0.557620 -0.778059 0.055316 -0.000000 0.000000 0.000000 1.265191 1.234515 0.353309 -1.273070 -1.226387 -0.380566 0.000000 0.000000 0.000000 0.000000 0.000000 0.000000 0.004897 -0.188702 -4.030990 -0.000000 0.000000 0.000000 -0.000000 0.000000 0.000000 0.000000 0.000000 0.000000 0.004897 -0.188702 -4.030990 -0.000000 0.000000 0.000000 -0.000000 0.000000 0.000000 0.000000 0.000000 0.000000
-76.632701 73.355211 336.122052 -0.021002 0.272925 3.971934 -0.353609 0.516817 -3.987695 -0.254300 0.224857 -0.045900 3.947341 -4.092716 -1.876073 0.000000 0.000000 0.000000 -0.363228 -1.471398 -0.137599 0.041860 0.662342 -0.147965 1.401244 -2.172748 0.667320 0.711358 7.062283 -0.175836 0.000000 0.000000 0.000000 0.000000 0.000000 0.000000 0.588209 -1.849537 -0.146580 0.074518 0.861537 0.211934 1.443734 1.483767 0.394862 -1.454405 -1.473308 -0.432260 0.000000 0.000000 0.000000 0.000000 0.000000 0.000000 0.002047 -0.273724 -3.971879 -0.000000 0.000000 0.000000 -0.000000 0.000000 0.000000 0.000000 0.000000 0.000000 0.002047 -0.273724 -3.971879 -0.000000 0.000000 0.000000 -0.000000 0.000000 0.000000 0.000000 0.000000 0.000000
-76.657597 73.351166 336.174276 -0.022255 0.369120 3.909142 -0.397752 0.586972 -3.927146 -0.272480 0.247087 -0.051137 4.430292 -4.927940 -2.094102 0.000000 0.000000 0.000000 -0.389870 -1.579948 -0.186008 -0.025227 0.625239 -0.150786 1.708497 -2.347111 0.777534 0.649540 6.720019 -0.267737 0.000000 0.000000 0.000000 0.000000 0.000000 0.000000 0.700310 -2.146229 -0.153212 0.030113 0.972451 0.228842 1.504835 1.654319 0.401634 -1.517016 -1.643156 -0.445117 0.000000 0.000000 0.000000 0.000000 0.000000 0.000000 -0.002962 -0.369779 -3.909080 -0.000000 0.000000 0.000000 -0.000000 0.000000 0.000000 0.000000 0.000000 0.000000 -0.002962 -0.369779 -3.909080 -0.000000 0.000000 0.000000 -0.000000 0.000000 0.000000 0.000000 0.000000 0.000000
-76.691729 73.351897 336.197015 -0.040243 0.549636 3.874847 -0.449797 0.672273 -3.896432 -0.283166 0.275346 -0.057816 5.092878 -6.482590 -2.385981 0.000000 0.000000 0.000000 -0.365690 -1.654290 -0.261658 -0.168148 0.473547 -0.140835 2.073490 -2.773038 0.935254 0.460926 3.951022 -0.525547 0.000000 0.000000 0.000000 0.000000 0.000000 0.000000 0.884601 -2.503778 -0.133166 -0.067290 1.039382 0.225612 1.346253 1.701926 0.342437 -1.990608 -0.854920 -0.388117 0.000000 0.000000 0.000000 0.000000 0.000000 0.000000 0.003009 -0.551099 -3.874639 -0.000000 0.000000 0.000000 -0.184960 0.191334 0.781939 0.000000 0.000000 0.000000 0.003009 -0.551099 -3.874639 -0.000000 0.000000 0.000000 -0.186822 0.181730 0.785805 0.000000 0.000000 0.000000
-76.715980 73.346325 336.216343 -0.052162 0.699438 3.808935 -0.470972 0.728377 -3.832663 -0.275479 0.283285 -0.060662 5.401986 -7.460449 -2.516677 0.000000 0.000000 0.000000 -0.344406 -1.574244 -0.345235 -0.297791 0.237114 -0.105560 2.495733 -2.595633 1.035307 -0.052690 2.277621 -0.610418 0.000000 0.000000 0.000000 0.000000 0.000000 0.000000 1.020768 -2.767663 -0.112606 0.132642 1.976967 0.407619 0.012755 0.765379 -0.206353 -2.030175 -1.561716 0.048265 0.000000 0.000000 0.000000 0.000000 0.000000 0.000000 0.005585 -0.701358 -3.808583 -0.000000 0.000000 0.000000 -0.236477 0.219805 0.995644 0.000000 0.000000 0.000000 0.005585 -0.701358 -3.808583 -0.000000 0.000000 0.000000 -0.238044 0.211784 0.998910 0.000000 0.000000 0.000000
-76.732948 73.345642 336.248050 -0.047702 0.787048 3.731226 -0.451057 0.727349 -3.754783 -0.238373 0.263725 -0.057139 5.084947 -7.815392 -2.382556 0.000000 0.000000 0.000000 -0.314304 -1.277360 -0.423514 -0.436919 -0.082697 -0.052910 2.800081 -2.281768 1.081929 -0.268521 1.640667 -0.649349 0.000000 0.000000 0.000000 0.000000 0.000000 0.000000 1.034912 -2.859253 -0.103671 0.102805 2.282030 0.443578 0.365305 0.749338 -0.127907 -1.888259 -2.998858 -0.077940 0.000000 0.000000 0.000000 0.000000 0.000000 0.000000 -0.003616 -0.788483 -3.730923 -0.000000 0.000000 0.000000 -0.283584 0.229749 1.189300 0.000000 0.000000 0.000000 -0.003616 -0.788483 -3.730923 -0.000000 0.000000 0.000000 -0.284482 0.224092 1.191336 0.000000 0.000000 0.000000
